<?xml version="1.0" standalone="no"?><!DOCTYPE svg PUBLIC "-//W3C//DTD SVG 1.1//EN" "http://www.w3.org/Graphics/SVG/1.1/DTD/svg11.dtd"><svg class="icon" width="200px" height="200.00px" viewBox="0 0 1024 1024" version="1.1" xmlns="http://www.w3.org/2000/svg"><path d="M905.955556 321.422222c-5.688889-5.688889-14.222222-5.688889-19.911112 0-9.955556 9.955556-21.333333 19.911111-32.711111 27.022222 0 0 0-1.422222-1.422222-1.422222L675.555556 170.666667c7.111111-11.377778 17.066667-22.755556 27.022222-32.711111 5.688889-5.688889 5.688889-14.222222 0-19.911112-5.688889-5.688889-14.222222-5.688889-19.911111 0-64 64-86.755556 156.444444-62.577778 243.2l-29.866667-9.955555c-65.422222-21.333333-137.955556-4.266667-186.311111 45.511111-48.355556 48.355556-66.844444 120.888889-45.511111 186.311111l9.955556 29.866667c-86.755556-25.6-179.2-1.422222-243.2 62.577778l-7.111112 7.111111c-5.688889 5.688889-5.688889 14.222222 0 19.911111 2.844444 2.844444 7.111111 4.266667 9.955556 4.266666 2.844444 0 7.111111-1.422222 9.955556-4.266666l7.111111-7.111111c2.844444-2.844444 5.688889-4.266667 8.533333-7.111111L332.8 867.555556c1.422222 1.422222 2.844444 2.844444 4.266667 2.844444l-8.533334 8.533333-7.111111 7.111111c-5.688889 5.688889-5.688889 14.222222 0 19.911112 2.844444 2.844444 7.111111 4.266667 9.955556 4.266666 2.844444 0 7.111111-1.422222 9.955555-4.266666l7.111111-7.111112c64-64 86.755556-156.444444 62.577778-243.2l29.866667 9.955556c65.422222 21.333333 137.955556 4.266667 186.311111-45.511111 48.355556-48.355556 66.844444-120.888889 45.511111-186.311111l-9.955555-29.866667c86.755556 25.6 179.2 1.422222 243.2-62.577778 5.688889-4.266667 5.688889-14.222222 0-19.911111zM382.577778 657.066667c12.8 39.822222 14.222222 81.066667 4.266666 119.466666L305.777778 696.888889c-5.688889-5.688889-14.222222-5.688889-19.911111 0-5.688889 5.688889-5.688889 14.222222 0 19.911111l89.6 89.6c-5.688889 14.222222-14.222222 28.444444-22.755556 41.244444l-1.422222-1.422222-174.933333-176.355555c55.466667-38.4 125.155556-49.777778 190.577777-28.444445l12.8 4.266667 2.844445 11.377778z m68.266666-18.488889l-48.355555-15.644445-15.644445-48.355555c-7.111111-19.911111-8.533333-41.244444-7.111111-62.577778l79.644445 79.644444c2.844444 2.844444 7.111111 4.266667 9.955555 4.266667 2.844444 0 7.111111-1.422222 9.955556-4.266667 5.688889-5.688889 5.688889-14.222222 0-19.911111l-92.444445-92.444444c5.688889-18.488889 15.644444-35.555556 28.444445-51.2L597.333333 608.711111c-39.822222 34.133333-95.288889 45.511111-146.488889 29.866667z m166.4-49.777778L435.2 406.755556c41.244444-34.133333 95.288889-45.511111 146.488889-28.444445l48.355555 15.644445 15.644445 48.355555c5.688889 19.911111 8.533333 39.822222 7.111111 59.733333l-76.8-76.8c-5.688889-5.688889-14.222222-5.688889-19.911111 0-5.688889 5.688889-5.688889 14.222222 0 19.911112l91.022222 91.022222c-7.111111 18.488889-17.066667 36.977778-29.866667 52.622222z m46.933334-213.333333l-12.8-4.266667-4.266667-12.8c-8.533333-27.022222-11.377778-54.044444-9.955555-81.066667l56.888888 56.888889c2.844444 2.844444 7.111111 4.266667 9.955556 4.266667 2.844444 0 7.111111-1.422222 9.955556-4.266667 5.688889-5.688889 5.688889-14.222222 0-19.911111l-69.688889-69.688889s-1.422222-1.422222-2.844445-1.422222c4.266667-15.644444 9.955556-32.711111 17.066667-46.933333l167.822222 167.822222c-48.355556 24.177778-106.666667 28.444444-162.133333 11.377778z" fill="#000000" /></svg>