<?xml version="1.0" standalone="no"?><!DOCTYPE svg PUBLIC "-//W3C//DTD SVG 1.1//EN" "http://www.w3.org/Graphics/SVG/1.1/DTD/svg11.dtd"><svg class="icon" width="200px" height="200.00px" viewBox="0 0 1024 1024" version="1.1" xmlns="http://www.w3.org/2000/svg"><path d="M502.057361 0q-81.323658 0-150.047876 40.661829T243.19614 151.19328q-40.089127 69.869622-40.089127 152.338683 0 74.451236 34.362109 139.739243 33.216705 64.142603 90.486887 106.522538-76.742043 33.216705-136.875735 94.4958T98.875282 784.601489q-34.362109 81.323658-34.362109 170.665141h1.145404q1.145404 19.471862 14.317545 32.071302t31.4986 12.59944q18.326458 0 31.4986-12.59944t14.317545-32.071302h1.145404v-3.436211q0-89.341483 42.379934-168.374334 40.089127-75.59664 111.676855-124.276294T471.131463 602.482311l9.163229 2.290807q13.744844 1.145404 21.762669 1.145404 81.323658 0 149.475174-40.661829t108.813345-109.958749Q801.007709 386.001024 801.007709 303.531963T760.34588 151.19328Q719.684051 81.323658 650.959833 40.661829T502.057361 0z m0 511.995424q-56.124778 0-103.659029-28.062389t-75.59664-76.169342Q294.739303 359.656741 294.739303 302.386559t28.062389-105.377134Q350.864081 148.902472 397.82563 120.840083T501.484659 92.777694q56.69748 0 104.231731 28.062389T680.740328 197.009425q27.489687 48.106953 27.489687 105.377134t-27.489687 105.377134q-27.489687 48.106953-75.023938 76.169342T502.057361 511.995424z m436.398784 440.980399v-1.145404q-1.145404-89.341483-35.507512-169.519737-33.216705-79.032851-92.777695-139.739244-12.59944-12.59944-31.4986-12.59944t-32.071301 13.172142Q733.428895 656.316282 733.428895 675.215442t13.744843 32.644003q45.816145 48.106953 71.587728 111.104153T844.533047 951.830419v3.436211h1.145404q1.145404 19.471862 14.317545 32.071302t31.4986 12.59944q18.326458 0 31.4986-12.59944t14.317546-32.071302h1.145403z" /></svg>